<mxfile host="app.diagrams.net" agent="Mozilla/5.0 (Macintosh; Intel Mac OS X 10_15_7) AppleWebKit/537.36 (KHTML, like Gecko) Chrome/129.0.0.0 Safari/537.36" version="24.8.0">
  <diagram name="Page-1" id="bOihFSjOE4_x7sZ8LOOl">
    <mxGraphModel dx="1562" dy="601" grid="1" gridSize="10" guides="1" tooltips="1" connect="1" arrows="1" fold="1" page="1" pageScale="1" pageWidth="1169" pageHeight="827" math="0" shadow="0">
      <root>
        <mxCell id="0" />
        <mxCell id="1" parent="0" />
        <mxCell id="ul9A2aqRwKRP9_MPx5ry-4" value="&lt;font color=&quot;#66b2ff&quot; style=&quot;font-size: 28px;&quot;&gt;INA219&lt;/font&gt;" style="rounded=1;whiteSpace=wrap;html=1;fontFamily=Courier New;fontSize=28;strokeColor=#66B2FF;" vertex="1" parent="1">
          <mxGeometry x="240" y="94" width="120" height="60" as="geometry" />
        </mxCell>
        <mxCell id="ul9A2aqRwKRP9_MPx5ry-6" value="&lt;b style=&quot;font-size: 28px;&quot;&gt;&lt;font style=&quot;font-size: 28px;&quot; color=&quot;#009900&quot;&gt;PCU&lt;/font&gt;&lt;/b&gt;" style="shape=process;whiteSpace=wrap;html=1;backgroundOutline=1;rounded=1;fontFamily=Courier New;fontSize=28;strokeColor=#009900;" vertex="1" parent="1">
          <mxGeometry x="400" y="210" width="120" height="60" as="geometry" />
        </mxCell>
        <mxCell id="ul9A2aqRwKRP9_MPx5ry-7" value="&lt;b style=&quot;font-size: 28px;&quot;&gt;&lt;font style=&quot;font-size: 28px;&quot; color=&quot;#ff0000&quot;&gt;MCU&lt;/font&gt;&lt;/b&gt;" style="shape=process;whiteSpace=wrap;html=1;backgroundOutline=1;rounded=1;fontFamily=Courier New;fontSize=28;strokeColor=#FF0000;" vertex="1" parent="1">
          <mxGeometry x="560" y="210" width="120" height="60" as="geometry" />
        </mxCell>
        <mxCell id="ul9A2aqRwKRP9_MPx5ry-9" value="&lt;font color=&quot;#ff8000&quot;&gt;TPL5110&lt;/font&gt;" style="rounded=1;whiteSpace=wrap;html=1;fontFamily=Courier New;fontSize=28;strokeColor=#FF8000;" vertex="1" parent="1">
          <mxGeometry x="480" y="314" width="140" height="60" as="geometry" />
        </mxCell>
        <mxCell id="ul9A2aqRwKRP9_MPx5ry-10" value="&lt;b style=&quot;font-size: 28px;&quot;&gt;ESU&lt;/b&gt;&lt;div style=&quot;font-size: 20px;&quot;&gt;&lt;font style=&quot;font-size: 20px;&quot;&gt;IPS7100&lt;/font&gt;&lt;/div&gt;&lt;div style=&quot;font-size: 20px;&quot;&gt;&lt;font style=&quot;font-size: 20px;&quot;&gt;BME280&lt;/font&gt;&lt;/div&gt;" style="shape=document;whiteSpace=wrap;html=1;boundedLbl=1;fontFamily=Courier New;fontSize=28;fontColor=#000099;strokeColor=#000099;" vertex="1" parent="1">
          <mxGeometry x="720" y="188" width="110" height="121" as="geometry" />
        </mxCell>
        <mxCell id="ul9A2aqRwKRP9_MPx5ry-11" value="" style="shape=image;html=1;verticalAlign=top;verticalLabelPosition=bottom;labelBackgroundColor=#ffffff;imageAspect=0;aspect=fixed;image=https://cdn2.iconfinder.com/data/icons/business-and-education-1/512/133_Solar_Panel_Energy_technology_smart_city_technology_smart-128.png" vertex="1" parent="1">
          <mxGeometry x="70" y="280" width="128" height="128" as="geometry" />
        </mxCell>
        <mxCell id="ul9A2aqRwKRP9_MPx5ry-12" value="&lt;span style=&quot;font-size: 28px;&quot;&gt;&lt;font color=&quot;#66b2ff&quot; style=&quot;font-size: 28px;&quot;&gt;INA219&lt;/font&gt;&lt;/span&gt;" style="rounded=1;whiteSpace=wrap;html=1;fontFamily=Courier New;fontSize=28;strokeColor=#66B2FF;" vertex="1" parent="1">
          <mxGeometry x="240" y="314" width="120" height="60" as="geometry" />
        </mxCell>
        <mxCell id="ul9A2aqRwKRP9_MPx5ry-13" value="" style="endArrow=classic;html=1;rounded=0;" edge="1" parent="1">
          <mxGeometry width="50" height="50" relative="1" as="geometry">
            <mxPoint x="400" y="340" as="sourcePoint" />
            <mxPoint x="450" y="290" as="targetPoint" />
          </mxGeometry>
        </mxCell>
        <mxCell id="ul9A2aqRwKRP9_MPx5ry-1" value="" style="shape=image;html=1;verticalAlign=top;verticalLabelPosition=bottom;labelBackgroundColor=#ffffff;imageAspect=0;aspect=fixed;image=https://cdn3.iconfinder.com/data/icons/essential-pack/32/26-Battery_status-128.png;rotation=-90;" vertex="1" parent="1">
          <mxGeometry x="70" y="60" width="128" height="128" as="geometry" />
        </mxCell>
      </root>
    </mxGraphModel>
  </diagram>
</mxfile>
